<svg xmlns="http://www.w3.org/2000/svg" viewBox="0 0 1500 1500"><defs><style>.cls-1{fill:#fff;}.cls-2{fill:#a00000;}</style></defs><g id="origin"><path class="cls-1" d="M573,682.44c-87.46,0-167.76-22.92-230.77-61.17C318.67,843,448.89,1099.72,572.93,1117.71v0H573v0c124-18,254.26-274.67,230.71-496.44C740.74,659.52,660.44,682.44,573,682.44Z"/><path d="M542.79,801.36c-2.07,5.77-26.74-8.52-72.37-8.14-43.35.37-66.38,13.65-68.37,8.14-2.54-7,30.66-40.64,70.37-40.67S545.33,794.25,542.79,801.36Z"/><path d="M603.18,801.36c2.07,5.77,26.74-8.52,72.37-8.14,43.35.37,66.38,13.65,68.37,8.14,2.54-7-30.66-40.64-70.37-40.67S600.64,794.25,603.18,801.36Z"/><path d="M689.59,924c7.67,9.64-42.42,96.27-116.16,97.16-72.47.87-124.62-81.61-117.11-91.95,6.19-8.52,50.2,35.46,120.5,33C644.3,959.78,683.55,916.42,689.59,924Z"/><path class="cls-1" d="M1114.29,703.26c-87.46,0-167.76-22.92-230.77-61.18C860,863.86,990.19,1120.53,1114.23,1138.53v0h.11v0c124-18,254.26-274.67,230.71-496.45C1282,680.34,1201.74,703.26,1114.29,703.26Z"/><path d="M1084.09,782.89c-2.07-5.77-26.74,8.51-72.36,8.13-43.36-.37-66.39-13.65-68.38-8.13-2.53,7,30.66,40.64,70.37,40.66S1086.64,790,1084.09,782.89Z"/><path d="M1144.49,782.89c2.06-5.77,26.74,8.51,72.36,8.13,43.35-.37,66.38-13.65,68.37-8.13,2.54,7-30.66,40.64-70.37,40.66S1141.94,790,1144.49,782.89Z"/><path d="M1235.23,1025.49c7.67-9.64-42.42-96.27-116.16-97.16-72.47-.87-124.62,81.61-117.11,92,6.19,8.51,50.19-35.47,120.5-33C1189.94,989.72,1229.19,1033.08,1235.23,1025.49Z"/></g><g id="Layer_2" data-name="Layer 2"><rect class="cls-2" width="1500" height="1500"/></g><g id="Layer_3_copy" data-name="Layer 3 copy"><path class="cls-1" d="M1232.92,613.59c-72.7,12.18-155.78,3.72-237-28.69S848.59,501.45,804.23,442.58C700.18,639.84,726,926.5,834.57,989.17v0h0l0,0v0C956.56,1018.46,1172.61,828.31,1232.92,613.59ZM793.08,632c.25-7.48,43.53-26.39,80.42-11.69s55.3,58.18,50.3,63.84c-4.06,4.59-21.68-17.82-64.2-34.37C819.2,634.08,792.88,637.88,793.08,632Zm77.73,267.67c-67.64-26.05-85.51-122-74.7-128.8,8.9-5.62,33.48,51.54,99.71,75.27,63.57,22.77,116.09-3,118.88,6.33C1018.25,864.29,939.63,926.19,870.81,899.69Zm239.8-141c-3.89,4.39-20.36-16.48-60.49-32.88-42.23-17.27-70.44-13.14-70.23-19.26.27-7.55,43.55-26.44,80.43-11.7S1115.58,753.1,1110.61,758.69Z"/><path class="cls-1" d="M745.38,869.66c-23.76-82-25.84-191.34-1.32-295.29-11.34-46.2-27.94-91.29-50.2-132.39-43.71,59.36-109.23,111.13-190.1,144.43s-163.85,42.67-236.68,31.3c62.67,214,280.81,401.79,402.36,371.2v0l0,0h.06v0C704,968.48,729.73,925.33,745.38,869.66ZM632,628.51c40-16.85,56.19-37.9,60.13-33.55,5,5.54-12.88,49.25-49.59,64.39s-80.19-3.27-80.55-10.81C561.72,642.42,590,646.23,632,628.51ZM456.57,735.93C419.84,751,376.36,732.6,376,725.12c-.26-5.86,26.09-2.34,66.32-18.51,42.33-17,59.71-39.62,63.82-35.07C511.22,677.14,493.31,720.83,456.57,735.93Zm152.79,114.2c-60.09,22-80.37,78-88.81,72.22-10.26-7,2.2-101.29,63.5-125.59,62.38-24.73,137.5,38,134.72,49.6C716.58,855.46,667.05,829,609.36,850.13Z"/></g></svg>